<?xml version="1.0" encoding="UTF-8"?>
<svg version="1.1" xmlns="http://www.w3.org/2000/svg" width="500" height="500">
<path d="M0 0 C165 0 330 0 500 0 C500 165 500 330 500 500 C335 500 170 500 0 500 C0 335 0 170 0 0 Z " fill="#FEFEFF" transform="translate(0,0)"/>
<path d="M0 0 C6.249375 -0.0928125 6.249375 -0.0928125 12.625 -0.1875 C13.92775879 -0.21481201 15.23051758 -0.24212402 16.57275391 -0.27026367 C23.49883495 -0.32012631 28.58590484 -0.18648881 33.875 4.75 C35.50340357 8.00680714 35.37833086 10.40585687 35 14 C33.6875 16.875 33.6875 16.875 32 19 C31.01 19.33 30.02 19.66 29 20 C29 20.66 29 21.32 29 22 C29.556875 22.061875 30.11375 22.12375 30.6875 22.1875 C34.30475611 23.45842782 35.74703336 24.87087967 38 28 C38.94272764 33.29377828 38.64128348 37.61877403 36.375 42.5 C32.94875026 46.10657867 29.7252039 47.81929273 24.74853516 48.34057617 C23.60690918 48.32486572 22.4652832 48.30915527 21.2890625 48.29296875 C20.16709473 48.28547607 19.04512695 48.2779834 17.88916016 48.27026367 C15.77840088 48.22929565 15.77840088 48.22929565 13.625 48.1875 C6.880625 48.0946875 6.880625 48.0946875 0 48 C0 32.16 0 16.32 0 0 Z " fill="#4C84FF" transform="translate(80,228)"/>
<path d="M0 0 C4.29 0 8.58 0 13 0 C15.9858625 7.30325829 18.68698486 14.66377816 21.25 22.125 C21.61351562 23.176875 21.97703125 24.22875 22.3515625 25.3125 C23.23653541 27.8742637 24.11930766 30.43676225 25 33 C29.75444867 22.24361186 33.36889092 11.17586311 37 0 C41.29 0 45.58 0 50 0 C50 15.84 50 31.68 50 48 C47.03 48 44.06 48 41 48 C40.67 37.77 40.34 27.54 40 17 C36.75250714 26.45333534 36.75250714 26.45333534 33.50805664 35.90771484 C33.10449951 37.08027832 32.70094238 38.2528418 32.28515625 39.4609375 C31.66459351 41.26763916 31.66459351 41.26763916 31.03149414 43.11083984 C30 46 30 46 29 48 C26.36 48 23.72 48 21 48 C20.73783691 47.26885986 20.47567383 46.53771973 20.20556641 45.78442383 C19.01298117 42.46011225 17.81900488 39.13630193 16.625 35.8125 C16.2125 34.66201172 15.8 33.51152344 15.375 32.32617188 C14.97539062 31.21435547 14.57578125 30.10253906 14.1640625 28.95703125 C13.79748535 27.93585205 13.4309082 26.91467285 13.05322266 25.86254883 C12.08240167 23.22395909 11.04417261 20.61043152 10 18 C9.67 27.9 9.34 37.8 9 48 C6.03 48 3.06 48 0 48 C0 32.16 0 16.32 0 0 Z " fill="#4982FF" transform="translate(189,228)"/>
<path d="M0 0 C2.97 0 5.94 0 9 0 C9.33 5.94 9.66 11.88 10 18 C11.98 16.68 13.96 15.36 16 14 C20.08631595 13.0460255 23.48470256 13.8091491 27.375 15.25 C30.23820805 17.15880537 30.84882524 17.8440448 32 21 C32.22705078 24.20800781 32.22705078 24.20800781 32.1953125 27.953125 C32.1924826 28.61334656 32.18965271 29.27356812 32.18673706 29.95379639 C32.17558415 32.05271897 32.15048946 34.15120742 32.125 36.25 C32.11496384 37.67707715 32.1058391 39.10416102 32.09765625 40.53125 C32.07566111 44.02097328 32.04116536 47.51044423 32 51 C29.03 51 26.06 51 23 51 C22.97494385 50.18732666 22.9498877 49.37465332 22.92407227 48.53735352 C22.80850882 44.87889248 22.68560416 41.22071472 22.5625 37.5625 C22.52318359 36.28310547 22.48386719 35.00371094 22.44335938 33.68554688 C22.40146484 32.47060547 22.35957031 31.25566406 22.31640625 30.00390625 C22.27974854 28.87799072 22.24309082 27.7520752 22.20532227 26.59204102 C22.28781955 24.07146559 22.28781955 24.07146559 21 23 C16.95198727 22.58680634 16.95198727 22.58680634 13 23 C10.04070176 26.10891803 9.60064025 28.41592651 9.48828125 32.640625 C9.45283203 33.71054687 9.41738281 34.78046875 9.38085938 35.8828125 C9.34702148 37.54957031 9.34702148 37.54957031 9.3125 39.25 C9.27833984 40.37664062 9.24417969 41.50328125 9.20898438 42.6640625 C9.12656986 45.44260901 9.05739702 48.22084252 9 51 C6.03 51 3.06 51 0 51 C0 34.17 0 17.34 0 0 Z " fill="#4982FF" transform="translate(369,225)"/>
<path d="M0 0 C2.97 0 5.94 0 9 0 C9.33 1.65 9.66 3.3 10 5 C10.804375 4.175 11.60875 3.35 12.4375 2.5 C15.83577596 -0.3345809 18.54633763 -0.62198629 22.88671875 -0.359375 C26.71247035 0.29121492 28.97193009 1.93353098 31.61450195 4.67480469 C33.52026236 7.87312401 33.34007875 10.24713833 33.29296875 13.953125 C33.28872391 14.61334656 33.28447906 15.27356812 33.28010559 15.95379639 C33.26337435 18.05295391 33.22573551 20.15113496 33.1875 22.25 C33.17244584 23.67706942 33.15875871 25.10415396 33.14648438 26.53125 C33.11349001 30.02114817 33.06174743 33.5104787 33 37 C30.03 37 27.06 37 24 37 C23.97494385 36.22285645 23.9498877 35.44571289 23.92407227 34.64501953 C23.80833204 31.13816931 23.68550648 27.63160255 23.5625 24.125 C23.52318359 22.90167969 23.48386719 21.67835938 23.44335938 20.41796875 C23.40146484 19.25136719 23.35957031 18.08476562 23.31640625 16.8828125 C23.27974854 15.80402832 23.24309082 14.72524414 23.20532227 13.61376953 C23.16623357 11.01930464 23.16623357 11.01930464 22 9 C20.741875 8.938125 19.48375 8.87625 18.1875 8.8125 C17.47980469 8.77769531 16.77210938 8.74289063 16.04296875 8.70703125 C13.33060631 9.09599336 12.65407864 9.83060339 11 12 C10.49454132 14.70484875 10.49454132 14.70484875 10.48828125 17.76171875 C10.45283203 18.87998047 10.41738281 19.99824219 10.38085938 21.15039062 C10.34702148 22.90125977 10.34702148 22.90125977 10.3125 24.6875 C10.27833984 25.86634766 10.24417969 27.04519531 10.20898438 28.25976562 C10.12642075 31.17308225 10.05729678 34.08609466 10 37 C6.7 37 3.4 37 0 37 C0 24.79 0 12.58 0 0 Z " fill="#4E86FF" transform="translate(292,239)"/>
<path d="M0 0 C2.97 0 5.94 0 9 0 C9.01981934 0.74161377 9.03963867 1.48322754 9.06005859 2.24731445 C9.15522928 5.60273834 9.26494094 8.95753286 9.375 12.3125 C9.4059375 13.47974609 9.436875 14.64699219 9.46875 15.84960938 C9.50742187 16.96787109 9.54609375 18.08613281 9.5859375 19.23828125 C9.6173584 20.26993408 9.6487793 21.30158691 9.68115234 22.36450195 C9.82674629 25.22843236 9.82674629 25.22843236 12 28 C14.9149255 28.5838196 14.9149255 28.5838196 18 28 C20.68370075 25.91645686 21.85523759 24.70464852 22.54589844 21.34277344 C22.5668457 20.35825195 22.58779297 19.37373047 22.609375 18.359375 C22.65771484 16.75449219 22.65771484 16.75449219 22.70703125 15.1171875 C22.72121094 14.00601563 22.73539062 12.89484375 22.75 11.75 C22.77964844 10.62335938 22.80929687 9.49671875 22.83984375 8.3359375 C22.91048912 5.55721979 22.96321277 2.77933852 23 0 C25.97 0 28.94 0 32 0 C32 11.88 32 23.76 32 36 C29.03 36 26.06 36 23 36 C22.67 34.68 22.34 33.36 22 32 C21.401875 32.639375 20.80375 33.27875 20.1875 33.9375 C17.36713048 36.59670554 15.52212356 36.95074306 11.6875 37.3125 C7.2979742 36.94050629 5.35223657 35.80652364 2 33 C-0.34957236 29.50393162 -0.23161615 26.40424085 -0.1953125 22.265625 C-0.18886719 20.97011719 -0.18242187 19.67460937 -0.17578125 18.33984375 C-0.15907193 16.97655981 -0.14214206 15.61327856 -0.125 14.25 C-0.1149634 12.87110015 -0.10583873 11.49219335 -0.09765625 10.11328125 C-0.07408093 6.74201118 -0.0411727 3.37109364 0 0 Z " fill="#4881FF" transform="translate(250,240)"/>
<path d="M0 0 C1.91015625 1.1015625 1.91015625 1.1015625 4.66015625 3.1015625 C3.67873686 5.55511098 2.93770033 6.89803018 0.78515625 8.4765625 C-2.0484754 9.30998357 -2.73183791 8.40556542 -5.33984375 7.1015625 C-8.03140118 6.91522391 -10.63699378 7.0114675 -13.33984375 7.1015625 C-12.80770801 9.59375703 -12.80770801 9.59375703 -11.33984375 12.1015625 C-8.40181228 13.43278739 -8.40181228 13.43278739 -4.96484375 14.1640625 C-0.28751217 15.3096392 2.72868559 16.14584306 5.66015625 20.1015625 C6.46301092 23.50677367 6.3105262 26.67183381 5.66015625 30.1015625 C2.6788531 34.07663337 -0.66055473 36.7096937 -5.63671875 37.4375 C-11.54786934 37.5316266 -16.58374705 36.87846282 -21.33984375 33.1015625 C-22.55859375 30.9609375 -22.55859375 30.9609375 -23.33984375 29.1015625 C-22.01984375 27.7815625 -20.69984375 26.4615625 -19.33984375 25.1015625 C-14.46484375 26.9765625 -14.46484375 26.9765625 -13.33984375 28.1015625 C-11.82056337 28.17336214 -10.29816893 28.18548257 -8.77734375 28.1640625 C-7.53791016 28.15052734 -7.53791016 28.15052734 -6.2734375 28.13671875 C-5.63535156 28.12511719 -4.99726563 28.11351562 -4.33984375 28.1015625 C-4.00984375 26.4515625 -3.67984375 24.8015625 -3.33984375 23.1015625 C-4.14808594 22.91980469 -4.95632813 22.73804688 -5.7890625 22.55078125 C-6.85769531 22.29941406 -7.92632812 22.04804688 -9.02734375 21.7890625 C-10.08308594 21.54542969 -11.13882812 21.30179687 -12.2265625 21.05078125 C-16.00781866 19.89790139 -19.23848002 18.57004747 -21.65234375 15.3515625 C-22.65183486 12.0805007 -22.69800945 9.50413662 -22.33984375 6.1015625 C-17.47396653 -1.71859732 -8.46392078 -3.2499195 0 0 Z " fill="#4D84FF" transform="translate(355.33984375,239.8984375)"/>
<path d="M0 0 C2.97 0 5.94 0 9 0 C9.33 14.19 9.66 28.38 10 43 C11.32 43.33 12.64 43.66 14 44 C14.38063221 46.3260857 14.71269945 48.66055264 15 51 C14 52 14 52 10.8125 52.3125 C6.38639804 51.94970476 4.41506491 50.76457636 1 48 C-0.18695418 45.62609164 -0.12075833 44.19755049 -0.11352539 41.55029297 C-0.11344986 40.62948944 -0.11337433 39.70868591 -0.11329651 38.75997925 C-0.10813522 37.76410797 -0.10297394 36.76823669 -0.09765625 35.7421875 C-0.0962413 34.72399933 -0.09482635 33.70581116 -0.09336853 32.6567688 C-0.087759 29.39614965 -0.07520488 26.13559849 -0.0625 22.875 C-0.05748623 20.66796974 -0.05292311 18.46093841 -0.04882812 16.25390625 C-0.03778647 10.83591119 -0.02051543 5.41796714 0 0 Z " fill="#4881FF" transform="translate(167,225)"/>
<path d="M0 0 C2.97 0 5.94 0 9 0 C9.33 14.19 9.66 28.38 10 43 C11.32 43.33 12.64 43.66 14 44 C14.38063221 46.3260857 14.71269945 48.66055264 15 51 C14 52 14 52 10.8125 52.3125 C6.38639804 51.94970476 4.41506491 50.76457636 1 48 C-0.18695418 45.62609164 -0.12075833 44.19755049 -0.11352539 41.55029297 C-0.11344986 40.62948944 -0.11337433 39.70868591 -0.11329651 38.75997925 C-0.10813522 37.76410797 -0.10297394 36.76823669 -0.09765625 35.7421875 C-0.0962413 34.72399933 -0.09482635 33.70581116 -0.09336853 32.6567688 C-0.087759 29.39614965 -0.07520488 26.13559849 -0.0625 22.875 C-0.05748623 20.66796974 -0.05292311 18.46093841 -0.04882812 16.25390625 C-0.03778647 10.83591119 -0.02051543 5.41796714 0 0 Z " fill="#4881FF" transform="translate(146,225)"/>
<path d="M0 0 C3.3 0 6.6 0 10 0 C10 12.21 10 24.42 10 37 C6.7 37 3.4 37 0 37 C0 24.79 0 12.58 0 0 Z " fill="#578BFF" transform="translate(411,239)"/>
<path d="M0 0 C2.97 0 5.94 0 9 0 C9 11.88 9 23.76 9 36 C6.03 36 3.06 36 0 36 C0 24.12 0 12.24 0 0 Z " fill="#4881FF" transform="translate(127,240)"/>
<path d="M0 0 C2.4178712 -0.10826289 4.83087556 -0.18739789 7.25 -0.25 C8.27287109 -0.30027344 8.27287109 -0.30027344 9.31640625 -0.3515625 C12.78011666 -0.41881901 14.6403231 -0.26803947 17.453125 1.828125 C19.55748367 4.7827296 19.59194451 6.44833292 19 10 C17.453125 12.171875 17.453125 12.171875 15 14 C12.26317029 14.2911521 9.96059961 14.38322418 7.25 14.25 C6.55261719 14.23195313 5.85523437 14.21390625 5.13671875 14.1953125 C3.42388461 14.14838554 1.71176176 14.07664605 0 14 C0 9.38 0 4.76 0 0 Z " fill="#FAFBFF" transform="translate(90,254)"/>
<path d="M0 0 C1.8975 -0.061875 3.795 -0.12375 5.75 -0.1875 C7.35101563 -0.23970703 7.35101563 -0.23970703 8.984375 -0.29296875 C12.33799392 0.0328362 13.66154555 0.61143581 16 3 C16.5 6 16.5 6 16 9 C13.66154555 11.38856419 12.33799392 11.9671638 8.984375 12.29296875 C7.91703125 12.25816406 6.8496875 12.22335938 5.75 12.1875 C2.90375 12.0946875 2.90375 12.0946875 0 12 C0 8.04 0 4.08 0 0 Z " fill="#FAFBFF" transform="translate(90,235)"/>
<path d="M0 0 C3.5 0.25 3.5 0.25 5.5 2.25 C5.25 5.8125 5.25 5.8125 4.5 9.25 C1.73749964 10.63125018 -0.44731099 10.44079306 -3.5 10.25 C-5.5 8.25 -5.5 8.25 -5.75 5.25 C-5.37802459 0.78629509 -4.42019834 0.31572845 0 0 Z " fill="#4D85FF" transform="translate(131.5,224.75)"/>
<path d="M0 0 C3.0625 0.3125 3.0625 0.3125 5 1.5 C6.0625 3.3125 6.0625 3.3125 5.875 5.875 C5.0625 8.3125 5.0625 8.3125 3.0625 10.3125 C0.0625 10.5625 0.0625 10.5625 -2.9375 10.3125 C-4.9375 8.3125 -4.9375 8.3125 -5.1875 5.3125 C-4.84687504 1.2250005 -4.07761768 0.43378911 0 0 Z " fill="#4C84FF" transform="translate(415.9375,224.6875)"/>
<path d="M0 0 C0.33 0 0.66 0 1 0 C1 10.56 1 21.12 1 32 C0.67 32 0.34 32 0 32 C-0.02505615 31.25838623 -0.0501123 30.51677246 -0.07592773 29.75268555 C-0.19186132 26.39744672 -0.31459985 23.04249056 -0.4375 19.6875 C-0.47681641 18.52025391 -0.51613281 17.35300781 -0.55664062 16.15039062 C-0.59853516 15.03212891 -0.64042969 13.91386719 -0.68359375 12.76171875 C-0.72025146 11.73006592 -0.75690918 10.69841309 -0.79467773 9.63549805 C-0.90161242 6.89251742 -0.90161242 6.89251742 -2 4 C-1.0625 1.8125 -1.0625 1.8125 0 0 Z " fill="#ECF2FF" transform="translate(229,244)"/>
</svg>
